<svg xmlns="http://www.w3.org/2000/svg" xmlns:xlink="http://www.w3.org/1999/xlink" width="240" zoomAndPan="magnify" viewBox="0 0 180 239.999995" height="320" preserveAspectRatio="xMidYMid meet" version="1.2"><g id="cd908434a8"><rect x="0" width="180" y="0" height="239.999995" style="fill:#ffffff;fill-opacity:1;stroke:none;"/><rect x="0" width="180" y="0" height="239.999995" style="fill:#ffffff;fill-opacity:1;stroke:none;"/><path style=" stroke:none;fill-rule:nonzero;fill:#100f0d;fill-opacity:1;" d="M 88.433594 149.515625 C 55.816406 149.515625 29.28125 123.03125 29.28125 90.480469 C 29.28125 57.929688 55.816406 31.449219 88.433594 31.449219 C 121.046875 31.449219 147.582031 57.929688 147.582031 90.480469 C 147.582031 123.03125 121.046875 149.515625 88.433594 149.515625 Z M 88.433594 23.238281 C 51.28125 23.238281 21.054688 53.402344 21.054688 90.480469 C 21.054688 127.558594 51.28125 157.722656 88.433594 157.722656 C 125.585938 157.722656 155.808594 127.558594 155.808594 90.480469 C 155.808594 53.402344 125.585938 23.238281 88.433594 23.238281 "/><path style=" stroke:none;fill-rule:nonzero;fill:#100f0d;fill-opacity:1;" d="M 168.425781 108.035156 C 164.382812 111.542969 162.066406 116.617188 162.066406 121.960938 C 162.066406 123.167969 162.1875 124.375 162.421875 125.542969 C 162.546875 126.199219 162.617188 126.871094 162.617188 127.542969 C 162.617188 131.945312 159.796875 135.84375 155.601562 137.246094 C 149.339844 139.34375 144.644531 144.660156 143.34375 151.128906 C 142.386719 155.90625 138.15625 159.371094 133.28125 159.371094 C 133.03125 159.371094 132.78125 159.359375 132.519531 159.34375 C 131.597656 159.289062 130.722656 159.285156 129.707031 159.371094 C 129.703125 159.371094 129.695312 159.371094 129.691406 159.371094 C 129.679688 159.375 129.664062 159.378906 129.652344 159.378906 C 124.046875 159.867188 119.042969 162.816406 115.90625 167.488281 C 113.996094 170.335938 110.804688 172.035156 107.371094 172.035156 C 105.777344 172.035156 104.238281 171.671875 102.792969 170.953125 C 98.386719 168.761719 93.117188 168.441406 88.507812 170.035156 C 88.46875 170.046875 88.433594 170.058594 88.394531 170.070312 C 88.363281 170.082031 88.332031 170.089844 88.304688 170.101562 C 88.277344 170.109375 88.25 170.125 88.222656 170.136719 C 88.152344 170.160156 88.085938 170.1875 88.019531 170.21875 C 87.164062 170.542969 86.339844 170.921875 85.554688 171.363281 C 85.511719 171.386719 85.46875 171.40625 85.425781 171.429688 C 85.417969 171.433594 85.410156 171.4375 85.402344 171.441406 C 85.042969 171.640625 84.683594 171.855469 84.292969 172.113281 C 82.597656 173.242188 80.628906 173.832031 78.597656 173.832031 C 75.617188 173.832031 72.789062 172.550781 70.839844 170.316406 C 67.324219 166.285156 62.234375 163.96875 56.882812 163.96875 C 55.679688 163.96875 54.472656 164.085938 53.308594 164.320312 C 51.378906 164.699219 49.382812 164.523438 47.546875 163.800781 C 44.714844 162.6875 42.535156 160.402344 41.570312 157.511719 C 40.53125 154.4375 38.695312 151.679688 36.261719 149.53125 C 33.808594 147.382812 30.835938 145.917969 27.664062 145.289062 C 22.882812 144.328125 19.410156 140.105469 19.410156 135.238281 C 19.410156 134.988281 19.421875 134.738281 19.4375 134.476562 C 19.460938 134.0625 19.476562 133.648438 19.476562 133.242188 C 19.476562 127.074219 16.410156 121.339844 11.277344 117.910156 C 8.425781 115.996094 6.722656 112.808594 6.722656 109.378906 C 6.722656 107.785156 7.082031 106.25 7.800781 104.8125 C 9.066406 102.265625 9.734375 99.421875 9.734375 96.585938 C 9.734375 92.921875 8.664062 89.378906 6.636719 86.355469 C 5.507812 84.664062 4.910156 82.699219 4.910156 80.671875 C 4.910156 77.699219 6.199219 74.878906 8.441406 72.929688 C 12.480469 69.421875 14.796875 64.347656 14.796875 59.003906 C 14.796875 57.800781 14.675781 56.597656 14.445312 55.429688 C 14.316406 54.765625 14.25 54.09375 14.25 53.429688 C 14.25 49.023438 17.066406 45.117188 21.253906 43.714844 C 24.328125 42.691406 27.09375 40.859375 29.261719 38.414062 C 31.410156 35.96875 32.882812 33 33.519531 29.828125 C 34.476562 25.058594 38.707031 21.59375 43.582031 21.59375 C 43.832031 21.59375 44.085938 21.605469 44.34375 21.621094 C 44.761719 21.644531 45.171875 21.664062 45.589844 21.664062 C 51.765625 21.664062 57.507812 18.605469 60.957031 13.476562 C 62.867188 10.632812 66.0625 8.929688 69.503906 8.929688 C 71.097656 8.929688 72.636719 9.292969 74.078125 10.007812 C 76.628906 11.273438 79.480469 11.941406 82.320312 11.941406 C 85.984375 11.941406 89.53125 10.871094 92.570312 8.84375 C 94.265625 7.71875 96.234375 7.125 98.257812 7.125 C 101.238281 7.125 104.066406 8.40625 106.019531 10.640625 C 109.527344 14.679688 114.613281 16.988281 119.96875 16.988281 C 121.175781 16.988281 122.386719 16.871094 123.566406 16.636719 C 124.222656 16.507812 124.890625 16.441406 125.558594 16.441406 C 129.972656 16.441406 133.886719 19.253906 135.292969 23.4375 C 136.320312 26.507812 138.152344 29.265625 140.597656 31.417969 C 143.035156 33.5625 146.011719 35.035156 149.207031 35.675781 C 153.980469 36.628906 157.453125 40.851562 157.453125 45.714844 C 157.453125 45.96875 157.441406 46.21875 157.425781 46.476562 C 157.402344 46.898438 157.386719 47.304688 157.386719 47.722656 C 157.386719 53.882812 160.453125 59.613281 165.59375 63.058594 C 168.441406 64.964844 170.144531 68.148438 170.144531 71.585938 C 170.144531 73.179688 169.78125 74.714844 169.0625 76.152344 C 167.796875 78.699219 167.128906 81.542969 167.128906 84.371094 C 167.128906 88.019531 168.199219 91.558594 170.230469 94.609375 C 171.355469 96.300781 171.953125 98.265625 171.953125 100.285156 C 171.953125 103.261719 170.664062 106.082031 168.425781 108.035156 Z M 122.625 225.21875 C 120.773438 224.035156 118.316406 224.515625 117.046875 226.308594 L 105.023438 243.320312 L 92.648438 180.285156 L 93.226562 177.324219 C 95.222656 177.074219 97.304688 177.398438 99.128906 178.300781 C 101.683594 179.574219 104.535156 180.246094 107.371094 180.246094 C 113.554688 180.246094 119.300781 177.183594 122.742188 172.054688 C 123.789062 170.5 125.210938 169.296875 126.855469 168.515625 L 140.195312 236.441406 Z M 71.894531 243.320312 L 59.863281 226.308594 C 58.59375 224.515625 56.136719 224.035156 54.285156 225.21875 L 36.722656 236.441406 L 49.253906 172.597656 C 51.128906 172.808594 53.035156 172.742188 54.910156 172.371094 C 55.554688 172.242188 56.21875 172.179688 56.882812 172.179688 C 59.855469 172.179688 62.683594 173.464844 64.636719 175.707031 C 68.148438 179.734375 73.242188 182.042969 78.597656 182.042969 C 80.476562 182.042969 82.320312 181.757812 84.082031 181.210938 Z M 177.078125 90.066406 C 175.949219 88.371094 175.355469 86.398438 175.355469 84.371094 C 175.355469 82.800781 175.726562 81.21875 176.429688 79.808594 C 177.699219 77.261719 178.371094 74.417969 178.371094 71.585938 C 178.371094 65.40625 175.304688 59.667969 170.171875 56.242188 C 167.316406 54.324219 165.613281 51.140625 165.613281 47.722656 C 165.613281 47.46875 165.621094 47.222656 165.636719 46.976562 C 165.664062 46.554688 165.679688 46.136719 165.679688 45.714844 C 165.679688 36.949219 159.429688 29.34375 150.816406 27.625 C 149.042969 27.269531 147.390625 26.457031 146.039062 25.261719 C 144.683594 24.066406 143.660156 22.535156 143.089844 20.828125 C 140.5625 13.296875 133.511719 8.230469 125.558594 8.230469 C 124.351562 8.230469 123.144531 8.351562 121.964844 8.585938 C 121.3125 8.714844 120.640625 8.78125 119.96875 8.78125 C 116.996094 8.78125 114.175781 7.496094 112.226562 5.257812 C 108.707031 1.226562 103.617188 -1.085938 98.257812 -1.085938 C 94.605469 -1.085938 91.0625 -0.015625 88.011719 2.011719 C 86.320312 3.136719 84.355469 3.730469 82.320312 3.730469 C 80.71875 3.730469 79.175781 3.367188 77.738281 2.65625 C 75.191406 1.390625 72.34375 0.71875 69.503906 0.71875 C 63.3125 0.71875 57.5625 3.78125 54.125 8.90625 C 52.210938 11.753906 49.019531 13.453125 45.589844 13.453125 C 45.335938 13.453125 45.089844 13.441406 44.84375 13.425781 C 44.421875 13.398438 44 13.382812 43.582031 13.382812 C 34.796875 13.382812 27.175781 19.625 25.453125 28.214844 C 25.101562 29.976562 24.28125 31.628906 23.085938 32.984375 C 21.886719 34.34375 20.351562 35.359375 18.640625 35.929688 C 11.09375 38.460938 6.023438 45.492188 6.023438 53.429688 C 6.023438 54.625 6.140625 55.828125 6.375 57.019531 C 6.503906 57.671875 6.570312 58.339844 6.570312 59.003906 C 6.570312 61.96875 5.28125 64.789062 3.039062 66.738281 C -1 70.25 -3.316406 75.328125 -3.316406 80.671875 C -3.316406 84.324219 -2.242188 87.863281 -0.207031 90.910156 C 0.917969 92.589844 1.511719 94.550781 1.511719 96.585938 C 1.511719 98.183594 1.148438 99.726562 0.4375 101.15625 C -0.851562 103.738281 -1.503906 106.503906 -1.503906 109.378906 C -1.503906 115.550781 1.558594 121.285156 6.695312 124.726562 C 9.546875 126.632812 11.25 129.816406 11.25 133.242188 C 11.25 133.488281 11.242188 133.734375 11.226562 133.980469 C 11.199219 134.402344 11.183594 134.820312 11.183594 135.238281 C 11.183594 144 17.433594 151.613281 26.054688 153.339844 C 27.8125 153.6875 29.464844 154.507812 30.824219 155.695312 C 32.175781 156.882812 33.195312 158.421875 33.773438 160.125 C 35.132812 164.195312 37.84375 167.605469 41.410156 169.855469 L 26.800781 244.285156 C 26.484375 245.898438 27.160156 247.542969 28.523438 248.46875 C 29.886719 249.394531 31.667969 249.417969 33.054688 248.53125 L 55.410156 234.25 L 70.71875 255.898438 C 71.5 257.003906 72.761719 257.636719 74.078125 257.636719 C 74.367188 257.636719 74.65625 257.605469 74.941406 257.542969 C 76.550781 257.203125 77.800781 255.933594 78.117188 254.320312 L 88.457031 201.636719 L 98.804688 254.320312 C 99.121094 255.933594 100.367188 257.203125 101.980469 257.542969 C 102.265625 257.605469 102.550781 257.636719 102.839844 257.636719 C 104.160156 257.636719 105.421875 257.003906 106.199219 255.898438 L 121.503906 234.25 L 143.863281 248.53125 C 145.253906 249.421875 147.035156 249.394531 148.394531 248.46875 C 149.757812 247.542969 150.433594 245.898438 150.117188 244.285156 L 135.035156 167.492188 C 143.066406 166.726562 149.804688 160.757812 151.410156 152.742188 C 152.132812 149.148438 154.742188 146.195312 158.21875 145.03125 C 165.769531 142.507812 170.84375 135.476562 170.84375 127.542969 C 170.84375 126.339844 170.722656 125.132812 170.488281 123.941406 C 170.359375 123.296875 170.292969 122.632812 170.292969 121.960938 C 170.292969 118.992188 171.582031 116.175781 173.824219 114.226562 C 177.863281 110.714844 180.179688 105.632812 180.179688 100.285156 C 180.179688 96.640625 179.105469 93.105469 177.078125 90.066406 "/></g></svg>